<svg width="16" height="16" viewBox="0 0 16 16" fill="none" xmlns="http://www.w3.org/2000/svg">
<path d="M8 13.375C6.36406 13.375 4.51906 13.0122 3.06469 12.4062C2.53125 12.1816 2.07438 11.8181 1.70094 11.5312C1.68241 11.5171 1.66029 11.5084 1.63708 11.5061C1.61387 11.5039 1.59049 11.5082 1.56959 11.5185C1.54868 11.5288 1.53109 11.5448 1.51879 11.5646C1.50649 11.5844 1.49998 11.6073 1.5 11.6306V12.0238C1.5 12.9009 2.23406 13.6869 3.56687 14.2369C4.75906 14.7291 6.33344 15 8 15C9.66656 15 11.2406 14.7291 12.4331 14.2369C13.7659 13.6875 14.5 12.9009 14.5 12.0238V11.6306C14.5 11.6073 14.4935 11.5844 14.4812 11.5646C14.4689 11.5448 14.4513 11.5288 14.4304 11.5185C14.4095 11.5082 14.3861 11.5039 14.3629 11.5061C14.3397 11.5084 14.3176 11.5171 14.2991 11.5312C13.9256 11.8178 13.4688 12.1816 12.935 12.4062C11.4806 13.0122 9.63594 13.375 8 13.375ZM14.5 3.95344C14.4747 3.08938 13.7444 2.31594 12.4375 1.77062C11.2419 1.27375 9.66688 1 8 1C6.33312 1 4.75812 1.27375 3.56531 1.77062C2.25969 2.31469 1.52938 3.08656 1.50281 3.94844L1.5 4.5C1.5 4.70031 1.6625 5.015 1.95719 5.27281C2.305 5.57687 2.82125 5.87688 3.45031 6.13938C4.78875 6.69875 6.48969 7.03125 8 7.03125C9.51031 7.03125 11.2112 6.6975 12.5497 6.13812C13.1787 5.87562 13.695 5.57563 14.0428 5.27156C14.3375 5.01531 14.5 4.70063 14.5 4.5V3.95344Z" fill="#3260BC"/>
<path d="M12.935 7.06246C11.4809 7.66965 9.63594 8.03121 8.00001 8.03121C6.36407 8.03121 4.51907 7.66965 3.06469 7.06246C2.53126 6.83902 2.07438 6.47527 1.70094 6.18746C1.68234 6.17322 1.6601 6.16451 1.63678 6.1623C1.61345 6.16009 1.58998 6.16448 1.56903 6.17497C1.54808 6.18547 1.5305 6.20163 1.5183 6.22163C1.50609 6.24163 1.49976 6.26466 1.50001 6.28808V7.24996C1.50001 7.45027 1.66251 7.70246 1.95719 7.96027C2.30501 8.26465 2.82126 8.56433 3.45032 8.82715C4.78876 9.38558 6.48969 9.71871 8.00001 9.71871C9.51032 9.71871 11.2113 9.38496 12.5497 8.8259C13.1788 8.56308 13.695 8.2634 14.0428 7.95902C14.3375 7.70215 14.5 7.45027 14.5 7.24996V6.28808C14.5 6.26476 14.4935 6.2419 14.4812 6.22209C14.4689 6.20227 14.4513 6.18629 14.4304 6.17595C14.4095 6.16561 14.3861 6.16133 14.3629 6.16358C14.3397 6.16584 14.3176 6.17454 14.2991 6.18871C13.9256 6.47527 13.4688 6.83902 12.935 7.06246Z" fill="#3260BC"/>
<path d="M12.935 9.74995C11.4806 10.3565 9.63594 10.7187 8 10.7187C6.36406 10.7187 4.51906 10.3565 3.06469 9.74995C2.53125 9.52589 2.07438 9.16214 1.70094 8.87495C1.68237 8.86075 1.6602 8.85204 1.63693 8.84981C1.61366 8.84758 1.59023 8.85192 1.56931 8.86234C1.54838 8.87275 1.53079 8.88882 1.51854 8.90873C1.50629 8.92864 1.49987 8.95158 1.5 8.97495V9.9062C1.5 10.1065 1.6625 10.3584 1.95688 10.6159C2.30469 10.9203 2.82125 11.22 3.45031 11.4828C4.78875 12.0412 6.48938 12.375 8 12.375C9.51063 12.375 11.2113 12.0412 12.5497 11.4821C13.1788 11.2193 13.695 10.9196 14.0428 10.6153C14.3375 10.3575 14.5 10.1053 14.5 9.9062V8.97495C14.5 8.95163 14.4935 8.92877 14.4812 8.90896C14.4689 8.88914 14.4513 8.87316 14.4304 8.86282C14.4095 8.85248 14.3861 8.8482 14.3629 8.85045C14.3397 8.85271 14.3176 8.86141 14.2991 8.87558C13.9256 9.16214 13.4688 9.52589 12.935 9.74995Z" fill="#3260BC"/>
</svg>
