<svg width="38" height="38" viewBox="0 0 38 38" fill="none" xmlns="http://www.w3.org/2000/svg">
<circle cx="19" cy="19" r="19" fill="#3260BC"/>
<path d="M17.75 10.25C17.75 9.91848 17.8817 9.60054 18.1161 9.36612C18.3506 9.1317 18.6685 9 19 9C19.3315 9 19.6495 9.1317 19.8839 9.36612C20.1183 9.60054 20.25 9.91848 20.25 10.25V19.1975L24.3038 15.1437L26.0713 16.9113L19 23.9825L11.9288 16.9125L13.6963 15.145L17.75 19.1975V10.25Z" fill="white"/>
<path d="M9 21.5H11.5V26.5H26.5V21.5H29V26.5C29 27.163 28.7366 27.7989 28.2678 28.2678C27.7989 28.7366 27.163 29 26.5 29H11.5C10.837 29 10.2011 28.7366 9.73223 28.2678C9.26339 27.7989 9 27.163 9 26.5V21.5Z" fill="white"/>
</svg>
