<svg width="1805" height="541" viewBox="0 0 1805 541" fill="none" xmlns="http://www.w3.org/2000/svg">
<rect x="13.6965" y="13.6965" width="1777.61" height="512.654" rx="116.27" fill="white" stroke="#3260BC" stroke-width="27.393"/>
<circle cx="215.534" cy="270.427" r="166.292" fill="#3260BC"/>
<ellipse cx="215.535" cy="304.331" rx="142.075" ry="137.232" fill="white"/>
<ellipse cx="215.131" cy="304.735" rx="81.1281" ry="77.8992" fill="#3260BC"/>
<ellipse cx="215.13" cy="334.199" rx="59.3325" ry="57.3144" fill="white"/>
<path d="M460.748 286.23C445.829 286.23 433.91 282.816 424.992 275.99C416.129 269.164 411.504 259.117 411.119 245.849H436.305C436.746 252.015 439.168 256.667 443.572 259.805C448.031 262.888 453.647 264.429 460.418 264.429C467.024 264.429 472.309 263.025 476.273 260.218C480.292 257.41 482.301 253.749 482.301 249.235C482.301 245.106 480.484 241.94 476.851 239.738C473.218 237.481 468.043 235.554 461.326 233.958L447.866 230.655C437.516 228.177 429.341 224.241 423.341 218.846C417.395 213.396 414.422 206.129 414.422 197.046C414.422 189.614 416.431 183.117 420.45 177.557C424.469 171.942 429.974 167.593 436.966 164.51C444.012 161.372 452.023 159.803 460.996 159.803C470.135 159.803 478.117 161.372 484.944 164.51C491.77 167.648 497.083 171.997 500.881 177.557C504.735 183.117 506.717 189.531 506.827 196.798H481.723C481.283 192.008 479.246 188.265 475.612 185.567C471.979 182.87 467.052 181.521 460.831 181.521C454.5 181.521 449.628 182.842 446.215 185.485C442.801 188.072 441.095 191.375 441.095 195.394C441.095 199.743 442.994 203.046 446.793 205.303C450.591 207.505 455.161 209.24 460.501 210.506L471.483 213.231C478.64 214.827 484.999 217.167 490.559 220.25C496.119 223.278 500.496 227.187 503.689 231.976C506.882 236.711 508.478 242.491 508.478 249.317C508.478 260.603 504.267 269.577 495.844 276.238C487.421 282.899 475.722 286.23 460.748 286.23ZM525.985 284.496V161.455H608.893V182.925H551.914V211.827H604.516V232.884H551.914V263.025H609.058V284.496H525.985ZM629.537 284.496V161.455H677.928C687.287 161.455 695.242 163.244 701.793 166.822C708.399 170.4 713.437 175.328 716.905 181.604C720.373 187.879 722.107 195.091 722.107 203.239C722.107 211.387 720.346 218.571 716.822 224.792C713.299 231.013 708.207 235.885 701.545 239.408C694.884 242.876 686.819 244.61 677.35 244.61H655.467V284.496H629.537ZM655.467 223.801H673.056C680.598 223.801 686.186 221.902 689.819 218.103C693.508 214.249 695.352 209.295 695.352 203.239C695.352 197.073 693.508 192.118 689.819 188.375C686.131 184.631 680.515 182.76 672.973 182.76H655.467V223.801ZM833.422 286.147C822.467 286.147 812.668 283.67 804.024 278.715C795.381 273.76 788.555 266.576 783.545 257.162C778.59 247.748 776.113 236.38 776.113 223.058C776.113 209.625 778.618 198.202 783.628 188.788C788.692 179.374 795.546 172.19 804.19 167.235C812.888 162.28 822.632 159.803 833.422 159.803C842.946 159.803 851.507 161.565 859.104 165.088C866.756 168.611 873.004 173.704 877.849 180.365C882.694 187.026 885.666 195.091 886.767 204.56H860.508C859.517 197.789 856.627 192.476 851.837 188.623C847.048 184.714 841.102 182.76 834 182.76C824.531 182.76 816.907 186.283 811.126 193.33C805.346 200.321 802.455 210.231 802.455 223.058C802.455 236.16 805.346 246.124 811.126 252.951C816.962 259.777 824.559 263.19 833.918 263.19C840.799 263.19 846.635 261.374 851.424 257.74C856.269 254.107 859.297 249.015 860.508 242.463H886.767C885.832 250.006 883.134 257.107 878.675 263.769C874.271 270.43 868.242 275.825 860.59 279.954C852.993 284.083 843.937 286.147 833.422 286.147ZM946.636 286.312C937.333 286.312 929.268 284.33 922.441 280.367C915.67 276.348 910.44 270.788 906.751 263.686C903.118 256.529 901.301 248.216 901.301 238.747C901.301 229.223 903.118 220.883 906.751 213.726C910.44 206.57 915.67 201.009 922.441 197.046C929.268 193.027 937.333 191.017 946.636 191.017C955.995 191.017 964.06 193.027 970.832 197.046C977.658 201.009 982.888 206.57 986.522 213.726C990.21 220.883 992.054 229.223 992.054 238.747C992.054 248.216 990.21 256.529 986.522 263.686C982.888 270.788 977.658 276.348 970.832 280.367C964.06 284.33 955.995 286.312 946.636 286.312ZM927.313 238.582C927.313 246.62 928.937 253.254 932.185 258.484C935.433 263.713 940.278 266.328 946.719 266.328C953.105 266.328 957.922 263.713 961.17 258.484C964.418 253.254 966.042 246.62 966.042 238.582C966.042 230.545 964.418 223.938 961.17 218.764C957.922 213.589 953.105 211.001 946.719 211.001C940.278 211.001 935.433 213.589 932.185 218.764C928.937 223.938 927.313 230.545 927.313 238.582ZM1008.9 284.496V192.174H1033.18V208.607H1034.33C1036.26 203.156 1039.48 198.862 1044 195.724C1048.51 192.586 1053.88 191.017 1060.1 191.017C1066.43 191.017 1071.8 192.614 1076.2 195.807C1080.66 198.945 1083.61 203.211 1085.04 208.607H1086.03C1087.95 203.266 1091.37 199 1096.27 195.807C1101.22 192.614 1107.09 191.017 1113.86 191.017C1122.44 191.017 1129.44 193.743 1134.83 199.193C1140.28 204.643 1143.01 212.378 1143.01 222.397V284.496H1117.41V227.517C1117.41 222.342 1116.03 218.488 1113.28 215.956C1110.58 213.424 1107.2 212.157 1103.12 212.157C1098.5 212.157 1094.86 213.644 1092.22 216.617C1089.63 219.534 1088.34 223.388 1088.34 228.177V284.496H1063.48V226.856C1063.48 222.397 1062.19 218.846 1059.6 216.204C1057.07 213.506 1053.71 212.157 1049.53 212.157C1045.23 212.157 1041.66 213.726 1038.79 216.864C1035.93 219.947 1034.5 224.049 1034.5 229.168V284.496H1008.9ZM1163.49 284.496V192.174H1187.76V208.607H1188.92C1190.85 203.156 1194.07 198.862 1198.58 195.724C1203.1 192.586 1208.46 191.017 1214.68 191.017C1221.02 191.017 1226.38 192.614 1230.79 195.807C1235.25 198.945 1238.19 203.211 1239.62 208.607H1240.61C1242.54 203.266 1245.95 199 1250.85 195.807C1255.81 192.614 1261.67 191.017 1268.44 191.017C1277.03 191.017 1284.02 193.743 1289.42 199.193C1294.87 204.643 1297.59 212.378 1297.59 222.397V284.496H1271.99V227.517C1271.99 222.342 1270.62 218.488 1267.86 215.956C1265.17 213.424 1261.78 212.157 1257.71 212.157C1253.08 212.157 1249.45 213.644 1246.81 216.617C1244.22 219.534 1242.93 223.388 1242.93 228.177V284.496H1218.07V226.856C1218.07 222.397 1216.78 218.846 1214.19 216.204C1211.66 213.506 1208.3 212.157 1204.11 212.157C1199.82 212.157 1196.24 213.726 1193.38 216.864C1190.52 219.947 1189.09 224.049 1189.09 229.168V284.496H1163.49ZM1377.2 245.271V192.174H1402.8V284.496H1378.19V267.732H1377.2C1375.16 273.127 1371.72 277.476 1366.88 280.78C1362.09 284.083 1356.22 285.707 1349.29 285.652C1339.98 285.707 1332.44 282.651 1326.66 276.486C1320.93 270.265 1318.07 261.759 1318.07 250.969V192.174H1343.67V246.51C1343.67 251.905 1345.13 256.199 1348.05 259.392C1350.97 262.53 1354.85 264.071 1359.69 264.016C1364.26 264.071 1368.31 262.502 1371.83 259.309C1375.41 256.116 1377.2 251.437 1377.2 245.271ZM1448.87 231.15V284.496H1423.28V192.174H1448.46V208.607H1449.37C1451.46 203.211 1454.79 198.945 1459.36 195.807C1463.93 192.614 1469.63 191.017 1476.46 191.017C1486.09 191.017 1493.8 194.128 1499.58 200.349C1505.41 206.515 1508.33 214.993 1508.33 225.783V284.496H1482.73V230.324C1482.73 224.654 1481.27 220.222 1478.36 217.029C1475.49 213.836 1471.5 212.24 1466.38 212.24C1461.21 212.24 1457 213.919 1453.75 217.277C1450.5 220.58 1448.87 225.205 1448.87 231.15ZM1528.81 284.496V192.174H1554.41V284.496H1528.81ZM1541.61 180.365C1537.81 180.365 1534.54 179.099 1531.78 176.566C1529.09 174.034 1527.74 170.979 1527.74 167.4C1527.74 163.822 1529.09 160.794 1531.78 158.317C1534.54 155.784 1537.81 154.518 1541.61 154.518C1545.41 154.518 1548.66 155.784 1551.35 158.317C1554.11 160.794 1555.48 163.822 1555.48 167.4C1555.48 170.979 1554.11 174.034 1551.35 176.566C1548.66 179.099 1545.41 180.365 1541.61 180.365ZM1623.94 192.174V211.497H1606.43V256.089C1606.43 262.089 1609.35 265.09 1615.19 265.09C1616.18 265.09 1617.25 265.007 1618.41 264.842C1619.62 264.677 1620.66 264.484 1621.55 264.264L1625.59 283.422C1620.14 285.019 1614.86 285.817 1609.74 285.817C1600.6 285.817 1593.5 283.505 1588.43 278.88C1583.42 274.256 1580.92 267.787 1580.92 259.474V211.497H1568.37V192.174H1580.92V170.208H1606.43V192.174H1623.94ZM1656.23 319.674C1652.98 319.674 1649.92 319.426 1647.06 318.931C1644.25 318.435 1641.91 317.83 1640.04 317.114L1645.91 298.038L1646.73 298.204C1651.03 299.415 1654.71 299.69 1657.8 299.029C1660.93 298.369 1663.25 295.946 1664.73 291.762L1666.3 287.138L1633.27 192.174H1660.11L1679.27 259.97H1680.26L1699.5 192.174H1726.58L1690.5 295.148C1687.91 302.635 1683.92 308.581 1678.52 312.985C1673.18 317.444 1665.75 319.674 1656.23 319.674Z" fill="url(#paint0_linear_101_326)"/>
<path d="M543.838 382.993C538.771 382.993 534.722 381.834 531.693 379.515C528.683 377.196 527.112 373.784 526.981 369.278H535.536C535.685 371.372 536.508 372.952 538.004 374.018C539.519 375.065 541.426 375.588 543.726 375.588C545.97 375.588 547.765 375.111 549.111 374.158C550.476 373.204 551.158 371.961 551.158 370.427C551.158 369.025 550.541 367.95 549.307 367.202C548.073 366.435 546.316 365.781 544.034 365.239L539.463 364.117C535.947 363.275 533.171 361.938 531.132 360.106C529.113 358.255 528.103 355.787 528.103 352.701C528.103 350.177 528.786 347.971 530.151 346.082C531.516 344.175 533.386 342.698 535.76 341.651C538.154 340.585 540.874 340.052 543.922 340.052C547.026 340.052 549.737 340.585 552.056 341.651C554.375 342.716 556.179 344.194 557.469 346.082C558.778 347.971 559.451 350.149 559.489 352.617H550.962C550.813 350.99 550.121 349.719 548.887 348.803C547.652 347.886 545.979 347.428 543.866 347.428C541.716 347.428 540.061 347.877 538.902 348.775C537.742 349.653 537.163 350.775 537.163 352.14C537.163 353.618 537.808 354.739 539.098 355.506C540.388 356.254 541.94 356.843 543.754 357.273L547.484 358.199C549.915 358.741 552.075 359.536 553.963 360.583C555.852 361.611 557.338 362.939 558.423 364.565C559.507 366.174 560.05 368.137 560.05 370.456C560.05 374.289 558.619 377.337 555.758 379.599C552.897 381.862 548.924 382.993 543.838 382.993ZM571.128 394.352C570.025 394.352 568.987 394.268 568.015 394.1C567.061 393.931 566.267 393.726 565.631 393.483L567.622 387.004L567.903 387.06C569.361 387.471 570.614 387.565 571.661 387.34C572.727 387.116 573.512 386.293 574.017 384.872L574.55 383.301L563.331 351.047H572.447L578.954 374.074H579.29L585.825 351.047H595.025L582.768 386.022C581.889 388.565 580.534 390.584 578.701 392.08C576.887 393.595 574.363 394.352 571.128 394.352ZM625.513 359.994L617.603 360.471C617.379 359.48 616.818 358.629 615.92 357.918C615.042 357.189 613.845 356.824 612.33 356.824C610.984 356.824 609.853 357.105 608.937 357.666C608.02 358.227 607.562 358.975 607.562 359.91C607.562 360.658 607.861 361.293 608.46 361.817C609.058 362.34 610.077 362.761 611.517 363.079L617.211 364.201C623.232 365.398 626.242 368.221 626.242 372.671C626.242 374.747 625.644 376.561 624.447 378.113C623.25 379.664 621.605 380.871 619.511 381.731C617.416 382.591 615.014 383.021 612.302 383.021C608.151 383.021 604.851 382.161 602.402 380.44C599.952 378.702 598.512 376.336 598.082 373.344L606.609 372.896C607.188 375.476 609.096 376.766 612.33 376.766C613.845 376.766 615.07 376.467 616.005 375.869C616.94 375.27 617.407 374.513 617.407 373.597C617.407 372.045 616.07 370.998 613.396 370.456L607.983 369.334C601.943 368.118 598.924 365.145 598.924 360.414C598.924 357.385 600.13 355.001 602.542 353.262C604.973 351.523 608.189 350.654 612.19 350.654C616.154 350.654 619.277 351.495 621.558 353.178C623.839 354.842 625.158 357.114 625.513 359.994ZM648.4 351.047V357.61H642.454V372.755C642.454 374.794 643.445 375.813 645.427 375.813C645.763 375.813 646.128 375.785 646.52 375.728C646.932 375.672 647.287 375.607 647.586 375.532L648.961 382.039C647.109 382.581 645.314 382.853 643.575 382.853C640.472 382.853 638.059 382.067 636.339 380.497C634.638 378.926 633.787 376.729 633.787 373.905V357.61H629.524V351.047H633.787V343.586H642.454V351.047H648.4ZM668.342 383.021C665.125 383.021 662.358 382.366 660.039 381.058C657.721 379.749 655.935 377.888 654.682 375.476C653.43 373.045 652.803 370.175 652.803 366.865C652.803 363.649 653.42 360.826 654.654 358.395C655.907 355.964 657.665 354.066 659.927 352.701C662.19 351.336 664.854 350.654 667.921 350.654C670.688 350.654 673.184 351.243 675.41 352.421C677.653 353.599 679.43 355.366 680.739 357.722C682.066 360.078 682.73 363.032 682.73 366.585V368.941H661.358C661.451 371.316 662.143 373.176 663.433 374.522C664.723 375.869 666.406 376.542 668.482 376.542C669.922 376.542 671.156 376.233 672.184 375.616C673.231 374.999 673.979 374.102 674.428 372.924L682.45 373.457C681.833 376.336 680.29 378.655 677.822 380.412C675.372 382.151 672.212 383.021 668.342 383.021ZM661.414 363.584H674.4C674.194 361.602 673.558 360.031 672.493 358.872C671.427 357.713 669.931 357.133 668.005 357.133C666.06 357.133 664.518 357.741 663.377 358.956C662.255 360.153 661.601 361.695 661.414 363.584ZM688.452 382.404V351.047H696.698V356.628H697.09C697.745 354.777 698.839 353.318 700.372 352.253C701.905 351.187 703.728 350.654 705.841 350.654C707.992 350.654 709.815 351.196 711.311 352.281C712.825 353.346 713.826 354.796 714.312 356.628H714.648C715.303 354.814 716.462 353.365 718.126 352.281C719.809 351.196 721.8 350.654 724.1 350.654C727.017 350.654 729.392 351.579 731.224 353.431C733.076 355.282 734.001 357.909 734.001 361.312V382.404H725.306V363.051C725.306 361.293 724.839 359.984 723.904 359.124C722.988 358.264 721.838 357.834 720.454 357.834C718.883 357.834 717.649 358.339 716.752 359.349C715.873 360.34 715.434 361.649 715.434 363.275V382.404H706.991V362.827C706.991 361.312 706.552 360.106 705.673 359.208C704.813 358.292 703.672 357.834 702.251 357.834C700.793 357.834 699.577 358.367 698.605 359.433C697.633 360.48 697.147 361.873 697.147 363.612V382.404H688.452ZM766.985 359.994L759.076 360.471C758.851 359.48 758.29 358.629 757.393 357.918C756.514 357.189 755.317 356.824 753.803 356.824C752.457 356.824 751.325 357.105 750.409 357.666C749.493 358.227 749.035 358.975 749.035 359.91C749.035 360.658 749.334 361.293 749.932 361.817C750.531 362.34 751.55 362.761 752.989 363.079L758.683 364.201C764.704 365.398 767.714 368.221 767.714 372.671C767.714 374.747 767.116 376.561 765.919 378.113C764.723 379.664 763.077 380.871 760.983 381.731C758.889 382.591 756.486 383.021 753.775 383.021C749.624 383.021 746.323 382.161 743.874 380.44C741.424 378.702 739.985 376.336 739.555 373.344L748.081 372.896C748.661 375.476 750.568 376.766 753.803 376.766C755.317 376.766 756.542 376.467 757.477 375.869C758.412 375.27 758.879 374.513 758.879 373.597C758.879 372.045 757.543 370.998 754.869 370.456L749.455 369.334C743.416 368.118 740.396 365.145 740.396 360.414C740.396 357.385 741.602 355.001 744.014 353.262C746.445 351.523 749.661 350.654 753.663 350.654C757.627 350.654 760.749 351.495 763.031 353.178C765.312 354.842 766.63 357.114 766.985 359.994ZM786.731 382.404V340.613H814.891V347.905H795.538V357.722H813.404V364.874H795.538V375.111H814.947V382.404H786.731ZM830.429 364.285V382.404H821.734V351.047H830.289V356.628H830.597C831.308 354.796 832.439 353.346 833.991 352.281C835.543 351.196 837.478 350.654 839.797 350.654C843.069 350.654 845.687 351.71 847.65 353.823C849.632 355.917 850.623 358.797 850.623 362.462V382.404H841.929V364.005C841.929 362.079 841.433 360.573 840.442 359.489C839.47 358.404 838.114 357.862 836.375 357.862C834.617 357.862 833.187 358.432 832.084 359.573C830.981 360.695 830.429 362.266 830.429 364.285ZM871.631 394.801C867.405 394.801 864.086 393.959 861.674 392.277C859.281 390.612 857.832 388.537 857.327 386.05L865.348 384.984C865.704 385.938 866.386 386.77 867.396 387.48C868.424 388.191 869.901 388.546 871.827 388.546C873.716 388.546 875.277 388.088 876.511 387.172C877.745 386.274 878.363 384.75 878.363 382.6V376.85H877.97C877.409 378.159 876.399 379.337 874.941 380.384C873.501 381.431 871.528 381.955 869.023 381.955C866.685 381.955 864.554 381.413 862.628 380.328C860.702 379.225 859.169 377.542 858.028 375.28C856.887 373.017 856.317 370.156 856.317 366.697C856.317 363.126 856.897 360.153 858.056 357.778C859.234 355.403 860.786 353.627 862.712 352.449C864.638 351.252 866.751 350.654 869.051 350.654C870.79 350.654 872.257 350.953 873.454 351.551C874.651 352.131 875.614 352.86 876.343 353.739C877.091 354.618 877.661 355.487 878.054 356.348H878.391V351.047H886.917V382.74C886.917 385.396 886.263 387.621 884.954 389.416C883.645 391.211 881.84 392.557 879.541 393.455C877.259 394.352 874.623 394.801 871.631 394.801ZM865.208 366.641C865.208 369.334 865.769 371.475 866.891 373.064C868.032 374.635 869.668 375.42 871.799 375.42C873.894 375.42 875.511 374.644 876.652 373.092C877.811 371.54 878.391 369.39 878.391 366.641C878.391 363.892 877.82 361.695 876.68 360.05C875.539 358.386 873.912 357.554 871.799 357.554C869.649 357.554 868.013 358.404 866.891 360.106C865.769 361.789 865.208 363.967 865.208 366.641ZM893.873 382.404V351.047H902.568V382.404H893.873ZM898.22 347.036C896.93 347.036 895.818 346.606 894.883 345.746C893.966 344.885 893.508 343.848 893.508 342.632C893.508 341.417 893.966 340.388 894.883 339.547C895.818 338.687 896.93 338.257 898.22 338.257C899.51 338.257 900.614 338.687 901.53 339.547C902.465 340.388 902.932 341.417 902.932 342.632C902.932 343.848 902.465 344.885 901.53 345.746C900.614 346.606 899.51 347.036 898.22 347.036ZM918.218 364.285V382.404H909.523V351.047H918.078V356.628H918.387C919.097 354.796 920.228 353.346 921.78 352.281C923.332 351.196 925.268 350.654 927.586 350.654C930.858 350.654 933.476 351.71 935.44 353.823C937.422 355.917 938.413 358.797 938.413 362.462V382.404H929.718V364.005C929.718 362.079 929.222 360.573 928.231 359.489C927.259 358.404 925.903 357.862 924.164 357.862C922.407 357.862 920.976 358.432 919.873 359.573C918.77 360.695 918.218 362.266 918.218 364.285ZM959.645 383.021C956.429 383.021 953.661 382.366 951.343 381.058C949.024 379.749 947.238 377.888 945.985 375.476C944.733 373.045 944.106 370.175 944.106 366.865C944.106 363.649 944.723 360.826 945.957 358.395C947.21 355.964 948.968 354.066 951.23 352.701C953.493 351.336 956.157 350.654 959.224 350.654C961.991 350.654 964.488 351.243 966.713 352.421C968.956 353.599 970.733 355.366 972.042 357.722C973.369 360.078 974.033 363.032 974.033 366.585V368.941H952.661C952.754 371.316 953.446 373.176 954.736 374.522C956.026 375.869 957.709 376.542 959.785 376.542C961.225 376.542 962.459 376.233 963.487 375.616C964.534 374.999 965.282 374.102 965.731 372.924L973.753 373.457C973.136 376.336 971.593 378.655 969.125 380.412C966.675 382.151 963.515 383.021 959.645 383.021ZM952.717 363.584H965.703C965.497 361.602 964.862 360.031 963.796 358.872C962.73 357.713 961.234 357.133 959.308 357.133C957.363 357.133 955.821 357.741 954.68 358.956C953.558 360.153 952.904 361.695 952.717 363.584ZM994.031 383.021C990.815 383.021 988.048 382.366 985.729 381.058C983.41 379.749 981.625 377.888 980.372 375.476C979.119 373.045 978.493 370.175 978.493 366.865C978.493 363.649 979.11 360.826 980.344 358.395C981.597 355.964 983.354 354.066 985.617 352.701C987.879 351.336 990.544 350.654 993.61 350.654C996.378 350.654 998.874 351.243 1001.1 352.421C1003.34 353.599 1005.12 355.366 1006.43 357.722C1007.76 360.078 1008.42 363.032 1008.42 366.585V368.941H987.047C987.141 371.316 987.833 373.176 989.123 374.522C990.413 375.869 992.096 376.542 994.171 376.542C995.611 376.542 996.845 376.233 997.874 375.616C998.921 374.999 999.669 374.102 1000.12 372.924L1008.14 373.457C1007.52 376.336 1005.98 378.655 1003.51 380.412C1001.06 382.151 997.902 383.021 994.031 383.021ZM987.103 363.584H1000.09C999.884 361.602 999.248 360.031 998.182 358.872C997.116 357.713 995.62 357.133 993.695 357.133C991.75 357.133 990.207 357.741 989.067 358.956C987.945 360.153 987.29 361.695 987.103 363.584ZM1014.14 382.404V351.047H1022.56V356.544H1022.89C1023.45 354.599 1024.41 353.131 1025.75 352.14C1027.1 351.131 1028.65 350.626 1030.41 350.626C1030.84 350.626 1031.31 350.654 1031.81 350.71C1032.32 350.766 1032.76 350.841 1033.13 350.934V358.619C1032.72 358.488 1032.15 358.386 1031.42 358.311C1030.71 358.217 1030.05 358.171 1029.46 358.171C1027.55 358.171 1025.97 358.778 1024.72 359.994C1023.46 361.19 1022.84 362.752 1022.84 364.678V382.404H1014.14ZM1037.65 382.404V351.047H1046.34V382.404H1037.65ZM1041.99 347.036C1040.7 347.036 1039.59 346.606 1038.65 345.746C1037.74 344.885 1037.28 343.848 1037.28 342.632C1037.28 341.417 1037.74 340.388 1038.65 339.547C1039.59 338.687 1040.7 338.257 1041.99 338.257C1043.28 338.257 1044.39 338.687 1045.3 339.547C1046.24 340.388 1046.7 341.417 1046.7 342.632C1046.7 343.848 1046.24 344.885 1045.3 345.746C1044.39 346.606 1043.28 347.036 1041.99 347.036ZM1061.99 364.285V382.404H1053.3V351.047H1061.85V356.628H1062.16C1062.87 354.796 1064 353.346 1065.55 352.281C1067.1 351.196 1069.04 350.654 1071.36 350.654C1074.63 350.654 1077.25 351.71 1079.21 353.823C1081.19 355.917 1082.18 358.797 1082.18 362.462V382.404H1073.49V364.005C1073.49 362.079 1072.99 360.573 1072 359.489C1071.03 358.404 1069.68 357.862 1067.94 357.862C1066.18 357.862 1064.75 358.432 1063.65 359.573C1062.54 360.695 1061.99 362.266 1061.99 364.285ZM1103.19 394.801C1098.97 394.801 1095.65 393.959 1093.24 392.277C1090.84 390.612 1089.39 388.537 1088.89 386.05L1096.91 384.984C1097.27 385.938 1097.95 386.77 1098.96 387.48C1099.99 388.191 1101.46 388.546 1103.39 388.546C1105.28 388.546 1106.84 388.088 1108.07 387.172C1109.31 386.274 1109.92 384.75 1109.92 382.6V376.85H1109.53C1108.97 378.159 1107.96 379.337 1106.5 380.384C1105.06 381.431 1103.09 381.955 1100.58 381.955C1098.25 381.955 1096.12 381.413 1094.19 380.328C1092.26 379.225 1090.73 377.542 1089.59 375.28C1088.45 373.017 1087.88 370.156 1087.88 366.697C1087.88 363.126 1088.46 360.153 1089.62 357.778C1090.8 355.403 1092.35 353.627 1094.27 352.449C1096.2 351.252 1098.31 350.654 1100.61 350.654C1102.35 350.654 1103.82 350.953 1105.02 351.551C1106.21 352.131 1107.18 352.86 1107.9 353.739C1108.65 354.618 1109.22 355.487 1109.62 356.348H1109.95V351.047H1118.48V382.74C1118.48 385.396 1117.82 387.621 1116.52 389.416C1115.21 391.211 1113.4 392.557 1111.1 393.455C1108.82 394.352 1106.18 394.801 1103.19 394.801ZM1096.77 366.641C1096.77 369.334 1097.33 371.475 1098.45 373.064C1099.59 374.635 1101.23 375.42 1103.36 375.42C1105.46 375.42 1107.07 374.644 1108.21 373.092C1109.37 371.54 1109.95 369.39 1109.95 366.641C1109.95 363.892 1109.38 361.695 1108.24 360.05C1107.1 358.386 1105.47 357.554 1103.36 357.554C1101.21 357.554 1099.57 358.404 1098.45 360.106C1097.33 361.789 1096.77 363.967 1096.77 366.641ZM1151.52 383.021C1148.62 383.021 1146.12 382.507 1144.03 381.478C1141.94 380.431 1140.33 379.019 1139.21 377.243C1138.08 375.467 1137.52 373.485 1137.52 371.297C1137.52 368.866 1138.23 366.847 1139.65 365.239C1141.08 363.612 1142.91 361.994 1145.15 360.386C1144.07 359.003 1143.13 357.526 1142.35 355.955C1141.58 354.384 1141.2 352.673 1141.2 350.822C1141.2 348.784 1141.66 346.961 1142.6 345.353C1143.55 343.726 1144.88 342.445 1146.58 341.51C1148.28 340.557 1150.28 340.08 1152.56 340.08C1154.8 340.08 1156.74 340.529 1158.36 341.426C1159.99 342.324 1161.23 343.52 1162.09 345.016C1162.97 346.512 1163.41 348.158 1163.41 349.953C1163.41 351.897 1162.92 353.674 1161.95 355.282C1161 356.871 1159.63 358.302 1157.86 359.573L1155.42 361.34L1162.32 369.221C1162.86 368.193 1163.29 367.08 1163.61 365.884C1163.93 364.668 1164.08 363.387 1164.08 362.041H1171.32C1171.32 364.865 1170.97 367.38 1170.28 369.586C1169.61 371.774 1168.69 373.644 1167.53 375.196L1173.82 382.404H1164.7L1162.2 379.599C1160.67 380.796 1158.96 381.665 1157.07 382.207C1155.18 382.75 1153.33 383.021 1151.52 383.021ZM1148.63 350.934C1148.63 351.794 1148.87 352.673 1149.36 353.571C1149.85 354.45 1150.47 355.385 1151.24 356.376L1153.43 354.945C1155.45 353.599 1156.46 352.094 1156.46 350.429C1156.46 349.607 1156.12 348.84 1155.45 348.13C1154.79 347.419 1153.86 347.064 1152.64 347.064C1151.44 347.064 1150.47 347.447 1149.72 348.214C1148.99 348.98 1148.63 349.887 1148.63 350.934ZM1145.97 370.82C1145.97 372.316 1146.51 373.569 1147.59 374.579C1148.68 375.57 1150.13 376.065 1151.94 376.065C1153.85 376.065 1155.71 375.504 1157.52 374.382L1149.58 365.547L1149.33 365.743C1148.19 366.566 1147.34 367.417 1146.78 368.296C1146.24 369.175 1145.97 370.016 1145.97 370.82ZM1190.95 382.404V340.613H1207.39C1210.57 340.613 1213.27 341.22 1215.5 342.436C1217.74 343.651 1219.45 345.325 1220.63 347.456C1221.81 349.588 1222.4 352.038 1222.4 354.805C1222.4 357.572 1221.8 360.012 1220.6 362.125C1219.4 364.238 1217.67 365.893 1215.41 367.09C1213.15 368.268 1210.41 368.857 1207.19 368.857H1199.76V382.404H1190.95ZM1199.76 361.789H1205.73C1208.3 361.789 1210.19 361.144 1211.43 359.853C1212.68 358.545 1213.31 356.862 1213.31 354.805C1213.31 352.711 1212.68 351.028 1211.43 349.756C1210.18 348.485 1208.27 347.849 1205.71 347.849H1199.76V361.789ZM1227.98 382.404V351.047H1236.39V356.544H1236.73C1237.29 354.599 1238.24 353.131 1239.59 352.14C1240.93 351.131 1242.49 350.626 1244.24 350.626C1244.67 350.626 1245.14 350.654 1245.65 350.71C1246.15 350.766 1246.59 350.841 1246.96 350.934V358.619C1246.55 358.488 1245.98 358.386 1245.25 358.311C1244.54 358.217 1243.89 358.171 1243.29 358.171C1241.38 358.171 1239.8 358.778 1238.55 359.994C1237.3 361.19 1236.67 362.752 1236.67 364.678V382.404H1227.98ZM1265.62 383.021C1262.46 383.021 1259.72 382.348 1257.4 381.001C1255.1 379.636 1253.32 377.748 1252.07 375.336C1250.84 372.905 1250.22 370.082 1250.22 366.865C1250.22 363.631 1250.84 360.798 1252.07 358.367C1253.32 355.936 1255.1 354.048 1257.4 352.701C1259.72 351.336 1262.46 350.654 1265.62 350.654C1268.8 350.654 1271.53 351.336 1273.83 352.701C1276.15 354.048 1277.93 355.936 1279.16 358.367C1280.42 360.798 1281.04 363.631 1281.04 366.865C1281.04 370.082 1280.42 372.905 1279.16 375.336C1277.93 377.748 1276.15 379.636 1273.83 381.001C1271.53 382.348 1268.8 383.021 1265.62 383.021ZM1259.05 366.809C1259.05 369.539 1259.61 371.792 1260.71 373.569C1261.81 375.345 1263.46 376.233 1265.64 376.233C1267.81 376.233 1269.45 375.345 1270.55 373.569C1271.66 371.792 1272.21 369.539 1272.21 366.809C1272.21 364.079 1271.66 361.836 1270.55 360.078C1269.45 358.32 1267.81 357.441 1265.64 357.441C1263.46 357.441 1261.81 358.32 1260.71 360.078C1259.61 361.836 1259.05 364.079 1259.05 366.809ZM1300.82 394.801C1296.59 394.801 1293.27 393.959 1290.86 392.277C1288.47 390.612 1287.02 388.537 1286.51 386.05L1294.53 384.984C1294.89 385.938 1295.57 386.77 1296.58 387.48C1297.61 388.191 1299.09 388.546 1301.01 388.546C1302.9 388.546 1304.46 388.088 1305.7 387.172C1306.93 386.274 1307.55 384.75 1307.55 382.6V376.85H1307.16C1306.59 378.159 1305.58 379.337 1304.13 380.384C1302.69 381.431 1300.71 381.955 1298.21 381.955C1295.87 381.955 1293.74 381.413 1291.81 380.328C1289.89 379.225 1288.35 377.542 1287.21 375.28C1286.07 373.017 1285.5 370.156 1285.5 366.697C1285.5 363.126 1286.08 360.153 1287.24 357.778C1288.42 355.403 1289.97 353.627 1291.9 352.449C1293.82 351.252 1295.94 350.654 1298.24 350.654C1299.98 350.654 1301.44 350.953 1302.64 351.551C1303.84 352.131 1304.8 352.86 1305.53 353.739C1306.28 354.618 1306.85 355.487 1307.24 356.348H1307.58V351.047H1316.1V382.74C1316.1 385.396 1315.45 387.621 1314.14 389.416C1312.83 391.211 1311.03 392.557 1308.73 393.455C1306.44 394.352 1303.81 394.801 1300.82 394.801ZM1294.39 366.641C1294.39 369.334 1294.95 371.475 1296.08 373.064C1297.22 374.635 1298.85 375.42 1300.98 375.42C1303.08 375.42 1304.7 374.644 1305.84 373.092C1307 371.54 1307.58 369.39 1307.58 366.641C1307.58 363.892 1307.01 361.695 1305.87 360.05C1304.72 358.386 1303.1 357.554 1300.98 357.554C1298.83 357.554 1297.2 358.404 1296.08 360.106C1294.95 361.789 1294.39 363.967 1294.39 366.641ZM1323.06 382.404V351.047H1331.47V356.544H1331.81C1332.37 354.599 1333.32 353.131 1334.67 352.14C1336.02 351.131 1337.57 350.626 1339.33 350.626C1339.76 350.626 1340.22 350.654 1340.73 350.71C1341.23 350.766 1341.67 350.841 1342.05 350.934V358.619C1341.64 358.488 1341.06 358.386 1340.34 358.311C1339.63 358.217 1338.97 358.171 1338.37 358.171C1336.47 358.171 1334.89 358.778 1333.63 359.994C1332.38 361.19 1331.75 362.752 1331.75 364.678V382.404H1323.06ZM1355.51 382.993C1352.52 382.993 1350.03 382.217 1348.05 380.665C1346.09 379.094 1345.1 376.757 1345.1 373.653C1345.1 371.316 1345.65 369.483 1346.73 368.156C1347.83 366.809 1349.28 365.828 1351.08 365.211C1352.87 364.575 1354.8 364.163 1356.86 363.976C1359.59 363.715 1361.53 363.444 1362.69 363.163C1363.87 362.864 1364.46 362.209 1364.46 361.2V361.06C1364.46 359.769 1364.05 358.769 1363.22 358.058C1362.4 357.348 1361.21 356.993 1359.66 356.993C1358.11 356.993 1356.84 357.329 1355.85 358.002C1354.87 358.675 1354.23 359.536 1353.91 360.583L1346 359.321C1346.75 356.591 1348.32 354.468 1350.71 352.954C1353.13 351.42 1356.12 350.654 1359.69 350.654C1362.01 350.654 1364.19 351.018 1366.22 351.748C1368.28 352.477 1369.94 353.627 1371.22 355.198C1372.49 356.75 1373.12 358.769 1373.12 361.256V382.404H1364.91V378.028H1364.65C1363.89 379.506 1362.75 380.702 1361.23 381.618C1359.74 382.535 1357.83 382.993 1355.51 382.993ZM1353.38 373.372C1353.38 374.569 1353.81 375.476 1354.67 376.093C1355.55 376.691 1356.65 376.991 1357.98 376.991C1359.88 376.991 1361.45 376.439 1362.66 375.336C1363.9 374.233 1364.51 372.858 1364.51 371.213V367.875C1364.18 368.099 1363.64 368.305 1362.91 368.492C1362.2 368.679 1361.45 368.838 1360.64 368.969C1359.84 369.081 1359.12 369.184 1358.48 369.278C1356.95 369.502 1355.72 369.941 1354.78 370.596C1353.85 371.231 1353.38 372.157 1353.38 373.372ZM1380.11 382.404V351.047H1388.35V356.628H1388.75C1389.4 354.777 1390.49 353.318 1392.03 352.253C1393.56 351.187 1395.38 350.654 1397.5 350.654C1399.65 350.654 1401.47 351.196 1402.97 352.281C1404.48 353.346 1405.48 354.796 1405.97 356.628H1406.3C1406.96 354.814 1408.12 353.365 1409.78 352.281C1411.46 351.196 1413.46 350.654 1415.76 350.654C1418.67 350.654 1421.05 351.579 1422.88 353.431C1424.73 355.282 1425.66 357.909 1425.66 361.312V382.404H1416.96V363.051C1416.96 361.293 1416.49 359.984 1415.56 359.124C1414.64 358.264 1413.49 357.834 1412.11 357.834C1410.54 357.834 1409.3 358.339 1408.41 359.349C1407.53 360.34 1407.09 361.649 1407.09 363.275V382.404H1398.65V362.827C1398.65 361.312 1398.21 360.106 1397.33 359.208C1396.47 358.292 1395.33 357.834 1393.91 357.834C1392.45 357.834 1391.23 358.367 1390.26 359.433C1389.29 360.48 1388.8 361.873 1388.8 363.612V382.404H1380.11ZM1432.61 382.404V351.047H1440.86V356.628H1441.25C1441.91 354.777 1443 353.318 1444.53 352.253C1446.07 351.187 1447.89 350.654 1450 350.654C1452.15 350.654 1453.98 351.196 1455.47 352.281C1456.99 353.346 1457.99 354.796 1458.47 356.628H1458.81C1459.46 354.814 1460.62 353.365 1462.29 352.281C1463.97 351.196 1465.96 350.654 1468.26 350.654C1471.18 350.654 1473.55 351.579 1475.39 353.431C1477.24 355.282 1478.16 357.909 1478.16 361.312V382.404H1469.47V363.051C1469.47 361.293 1469 359.984 1468.06 359.124C1467.15 358.264 1466 357.834 1464.61 357.834C1463.04 357.834 1461.81 358.339 1460.91 359.349C1460.03 360.34 1459.59 361.649 1459.59 363.275V382.404H1451.15V362.827C1451.15 361.312 1450.71 360.106 1449.83 359.208C1448.97 358.292 1447.83 357.834 1446.41 357.834C1444.95 357.834 1443.74 358.367 1442.77 359.433C1441.79 360.48 1441.31 361.873 1441.31 363.612V382.404H1432.61ZM1485.12 382.404V351.047H1493.81V382.404H1485.12ZM1489.47 347.036C1488.17 347.036 1487.06 346.606 1486.13 345.746C1485.21 344.885 1484.75 343.848 1484.75 342.632C1484.75 341.417 1485.21 340.388 1486.13 339.547C1487.06 338.687 1488.17 338.257 1489.47 338.257C1490.76 338.257 1491.86 338.687 1492.77 339.547C1493.71 340.388 1494.18 341.417 1494.18 342.632C1494.18 343.848 1493.71 344.885 1492.77 345.746C1491.86 346.606 1490.76 347.036 1489.47 347.036ZM1509.46 364.285V382.404H1500.77V351.047H1509.32V356.628H1509.63C1510.34 354.796 1511.47 353.346 1513.03 352.281C1514.58 351.196 1516.51 350.654 1518.83 350.654C1522.1 350.654 1524.72 351.71 1526.68 353.823C1528.67 355.917 1529.66 358.797 1529.66 362.462V382.404H1520.96V364.005C1520.96 362.079 1520.47 360.573 1519.48 359.489C1518.5 358.404 1517.15 357.862 1515.41 357.862C1513.65 357.862 1512.22 358.432 1511.12 359.573C1510.01 360.695 1509.46 362.266 1509.46 364.285ZM1550.67 394.801C1546.44 394.801 1543.12 393.959 1540.71 392.277C1538.31 390.612 1536.87 388.537 1536.36 386.05L1544.38 384.984C1544.74 385.938 1545.42 386.77 1546.43 387.48C1547.46 388.191 1548.94 388.546 1550.86 388.546C1552.75 388.546 1554.31 388.088 1555.55 387.172C1556.78 386.274 1557.4 384.75 1557.4 382.6V376.85H1557C1556.44 378.159 1555.43 379.337 1553.97 380.384C1552.53 381.431 1550.56 381.955 1548.06 381.955C1545.72 381.955 1543.59 381.413 1541.66 380.328C1539.74 379.225 1538.2 377.542 1537.06 375.28C1535.92 373.017 1535.35 370.156 1535.35 366.697C1535.35 363.126 1535.93 360.153 1537.09 357.778C1538.27 355.403 1539.82 353.627 1541.75 352.449C1543.67 351.252 1545.78 350.654 1548.08 350.654C1549.82 350.654 1551.29 350.953 1552.49 351.551C1553.68 352.131 1554.65 352.86 1555.38 353.739C1556.13 354.618 1556.7 355.487 1557.09 356.348H1557.42V351.047H1565.95V382.74C1565.95 385.396 1565.3 387.621 1563.99 389.416C1562.68 391.211 1560.87 392.557 1558.57 393.455C1556.29 394.352 1553.66 394.801 1550.67 394.801ZM1544.24 366.641C1544.24 369.334 1544.8 371.475 1545.93 373.064C1547.07 374.635 1548.7 375.42 1550.83 375.42C1552.93 375.42 1554.55 374.644 1555.69 373.092C1556.84 371.54 1557.42 369.39 1557.42 366.641C1557.42 363.892 1556.85 361.695 1555.71 360.05C1554.57 358.386 1552.95 357.554 1550.83 357.554C1548.68 357.554 1547.05 358.404 1545.93 360.106C1544.8 361.789 1544.24 363.967 1544.24 366.641Z" fill="#3260BC"/>
<path d="M507.748 307.192H1595.64V314.041H507.748V307.192Z" fill="#3260BC"/>
<defs>
<linearGradient id="paint0_linear_101_326" x1="404.43" y1="177.19" x2="1765.45" y2="177.19" gradientUnits="userSpaceOnUse">
<stop offset="0.9999" stop-color="#3260BC"/>
<stop offset="1" stop-color="#172C56"/>
</linearGradient>
</defs>
</svg>
