<svg width="17" height="17" viewBox="0 0 17 17" fill="none" xmlns="http://www.w3.org/2000/svg">
<path d="M8.50057 1.00111C3.813 1.00111 0 4.72398 0 9.29827C0 12.7835 2.21209 15.773 5.33637 17L7.41163 11.9494C6.78069 11.7027 6.25743 11.2493 5.93173 10.667C5.60603 10.0847 5.49822 9.40994 5.62681 8.75852C5.7554 8.10709 6.11238 7.51971 6.63642 7.09724C7.16045 6.67478 7.81885 6.4436 8.49852 6.44343C9.17819 6.44326 9.83671 6.67409 10.361 7.09629C10.8852 7.51849 11.2425 8.10569 11.3715 8.75705C11.5004 9.40841 11.393 10.0833 11.0676 10.6657C10.7422 11.2481 10.2192 11.7018 9.58837 11.9488L11.6636 16.9989C14.7879 15.7713 17 12.7819 17 9.29716C17.0011 4.72287 13.1876 1 8.50057 1V1.00111Z" fill="#3260BC"/>
</svg>
