<svg width="24" height="24" viewBox="0 0 24 24" fill="none" xmlns="http://www.w3.org/2000/svg">
<path d="M12 14C13.1046 14 14 13.1046 14 12C14 10.8954 13.1046 10 12 10C10.8954 10 10 10.8954 10 12C10 13.1046 10.8954 14 12 14Z" stroke="#3260BC" stroke-width="2" stroke-linecap="round" stroke-linejoin="round"/>
<path d="M5.00001 4.90002C4.06272 5.82965 3.31878 6.93567 2.81109 8.15426C2.30341 9.37285 2.04202 10.6799 2.04202 12C2.04202 13.3201 2.30341 14.6272 2.81109 15.8458C3.31878 17.0644 4.06272 18.1704 5.00001 19.1M7.80001 7.70002C7.22547 8.25913 6.7688 8.9277 6.45698 9.66625C6.14516 10.4048 5.9845 11.1983 5.9845 12C5.9845 12.8017 6.14516 13.5953 6.45698 14.3338C6.7688 15.0724 7.22547 15.7409 7.80001 16.3M16.2 16.3C16.7745 15.7409 17.2312 15.0724 17.543 14.3338C17.8549 13.5953 18.0155 12.8017 18.0155 12C18.0155 11.1983 17.8549 10.4048 17.543 9.66625C17.2312 8.9277 16.7745 8.25913 16.2 7.70002M19 19.1C19.9373 18.1704 20.6812 17.0644 21.1889 15.8458C21.6966 14.6272 21.958 13.3201 21.958 12C21.958 10.6799 21.6966 9.37285 21.1889 8.15426C20.6812 6.93567 19.9373 5.82965 19 4.90002" stroke="#3260BC" stroke-width="2" stroke-linecap="round" stroke-linejoin="round"/>
</svg>
